Title                            : Serbuan maut
Also Known As                    : The Raid: Redemption
Year                             : 2011
Genre                            : Action | Crime | Thriller
iMDB URL                         : http://www.imdb.com/title/tt1899353/

Complete name                    : The.Raid.Redemption.2011.BRRIP.720P.H264-ZEKTORM.mp4
Format                           : MPEG-4
Format profile                   : Base Media
Codec ID                         : isom
File size                        : 2.25 GiB
Duration                         : 1h 38mn
Overall bit rate                 : 3281 Kbps
Subtitles                        : English (Format: srt)

Video
ID                               : 1
Format                           : AVC
Format/Info                      : Advanced Video Codec
Format profile                   : High@L4.0
Format settings, CABAC           : Yes
Format settings, ReFrames        : 9 frames
Codec ID                         : avc1
Codec ID/Info                    : Advanced Video Coding
Duration                         : 1h 38mn
Bit rate mode                    : Variable
Bit rate                         : 3091 Kbps
Width                            : 1280 pixels
Height                           : 688 pixels
Display aspect ratio             : 1.860
Frame rate mode                  : Constant
Frame rate                       : 24.000 fps
Resolution                       : 24 bits
Colorimetry                      : 4:2:0
Scan type                        : Progressive
Bits/(Pixel*Frame)               : 0.146
Stream size                      : 2.12 GiB (94%)
Title                            : Video
Writing library                  : x264

Audio
ID                               : 2
Format                           : AAC
Format/Info                      : Advanced Audio Codec
Format version                   : Version 4
Format profile                   : LC
Format settings, SBR             : Yes
Format settings, PS              : No
Codec ID                         : 40
Duration                         : 1h 38mn
Bit rate mode                    : Variable
Bit rate                         : 187 Kbps
Maximum bit rate                 : 289 Kbps
Channel(s)                       : 6 channels
Channel positions                : Front: L C R, Rear: L R, LFE
Sampling rate                    : 48.0 KHz
Resolution                       : 16 bits
Stream size                      : 131 MiB (6%)
Language                         : Indonesian


Screenshots:

[img]http://img10.imageshack.us/img10/875/snaptrr1.png[/img]

[img]http://img692.imageshack.us/img692/4344/snaptrr2.png[/img]
